<?xml version="1.0" encoding="UTF-8"?>
<svg version="1.1" xmlns="http://www.w3.org/2000/svg" width="300" height="300">
<path d="M0 0 C0.74917694 0.00182281 1.49835388 0.00364563 2.27023315 0.00552368 C13.54006686 0.05166902 24.3436054 0.57304907 35.3125 3.3125 C35.98877441 3.47347168 36.66504883 3.63444336 37.36181641 3.80029297 C61.63881498 9.68991206 82.75934079 21.85731384 101.3125 38.3125 C102.36597174 39.18533952 103.42195115 40.05516164 104.48046875 40.921875 C108.2179886 44.07685727 111.20413373 47.54911402 114.3125 51.3125 C115.15039062 52.3128125 115.98828125 53.313125 116.8515625 54.34375 C139.35281426 81.71491554 150.80369875 114.64065719 150.625 150 C150.62226578 151.12376541 150.62226578 151.12376541 150.61947632 152.27023315 C150.57333098 163.54006686 150.05195093 174.3436054 147.3125 185.3125 C147.15152832 185.98877441 146.99055664 186.66504883 146.82470703 187.36181641 C140.93508794 211.63881498 128.76768616 232.75934079 112.3125 251.3125 C111.43966048 252.36597174 110.56983836 253.42195115 109.703125 254.48046875 C106.54814273 258.2179886 103.07588598 261.20413373 99.3125 264.3125 C97.81203125 265.56933594 97.81203125 265.56933594 96.28125 266.8515625 C68.91008446 289.35281426 35.98434281 300.80369875 0.625 300.625 C-0.49876541 300.62226578 -0.49876541 300.62226578 -1.64523315 300.61947632 C-12.91506686 300.57333098 -23.7186054 300.05195093 -34.6875 297.3125 C-35.36377441 297.15152832 -36.04004883 296.99055664 -36.73681641 296.82470703 C-61.01381498 290.93508794 -82.13434079 278.76768616 -100.6875 262.3125 C-101.74097174 261.43966048 -102.79695115 260.56983836 -103.85546875 259.703125 C-107.5929886 256.54814273 -110.57913373 253.07588598 -113.6875 249.3125 C-114.94433594 247.81203125 -114.94433594 247.81203125 -116.2265625 246.28125 C-138.72781426 218.91008446 -150.17869875 185.98434281 -150 150.625 C-149.99817719 149.87582306 -149.99635437 149.12664612 -149.99447632 148.35476685 C-149.94833098 137.08493314 -149.42695093 126.2813946 -146.6875 115.3125 C-146.52652832 114.63622559 -146.36555664 113.95995117 -146.19970703 113.26318359 C-140.31008794 88.98618502 -128.14268616 67.86565921 -111.6875 49.3125 C-110.81466048 48.25902826 -109.94483836 47.20304885 -109.078125 46.14453125 C-105.92314273 42.4070114 -102.45088598 39.42086627 -98.6875 36.3125 C-97.6871875 35.47460938 -96.686875 34.63671875 -95.65625 33.7734375 C-68.28508446 11.27218574 -35.35934281 -0.17869875 0 0 Z " fill="#010201" transform="translate(149.6875,-0.3125)"/>
<path d="M0 0 C0.74917694 0.00182281 1.49835388 0.00364563 2.27023315 0.00552368 C13.54006686 0.05166902 24.3436054 0.57304907 35.3125 3.3125 C35.98877441 3.47347168 36.66504883 3.63444336 37.36181641 3.80029297 C61.63881498 9.68991206 82.75934079 21.85731384 101.3125 38.3125 C102.36597174 39.18533952 103.42195115 40.05516164 104.48046875 40.921875 C108.2179886 44.07685727 111.20413373 47.54911402 114.3125 51.3125 C115.15039062 52.3128125 115.98828125 53.313125 116.8515625 54.34375 C139.35281426 81.71491554 150.80369875 114.64065719 150.625 150 C150.62226578 151.12376541 150.62226578 151.12376541 150.61947632 152.27023315 C150.57333098 163.54006686 150.05195093 174.3436054 147.3125 185.3125 C147.15152832 185.98877441 146.99055664 186.66504883 146.82470703 187.36181641 C140.93508794 211.63881498 128.76768616 232.75934079 112.3125 251.3125 C111.43966048 252.36597174 110.56983836 253.42195115 109.703125 254.48046875 C106.54814273 258.2179886 103.07588598 261.20413373 99.3125 264.3125 C97.81203125 265.56933594 97.81203125 265.56933594 96.28125 266.8515625 C68.91008446 289.35281426 35.98434281 300.80369875 0.625 300.625 C-0.49876541 300.62226578 -0.49876541 300.62226578 -1.64523315 300.61947632 C-12.91506686 300.57333098 -23.7186054 300.05195093 -34.6875 297.3125 C-35.36377441 297.15152832 -36.04004883 296.99055664 -36.73681641 296.82470703 C-61.01381498 290.93508794 -82.13434079 278.76768616 -100.6875 262.3125 C-101.74097174 261.43966048 -102.79695115 260.56983836 -103.85546875 259.703125 C-107.5929886 256.54814273 -110.57913373 253.07588598 -113.6875 249.3125 C-114.94433594 247.81203125 -114.94433594 247.81203125 -116.2265625 246.28125 C-138.72781426 218.91008446 -150.17869875 185.98434281 -150 150.625 C-149.99817719 149.87582306 -149.99635437 149.12664612 -149.99447632 148.35476685 C-149.94833098 137.08493314 -149.42695093 126.2813946 -146.6875 115.3125 C-146.52652832 114.63622559 -146.36555664 113.95995117 -146.19970703 113.26318359 C-140.31008794 88.98618502 -128.14268616 67.86565921 -111.6875 49.3125 C-110.81466048 48.25902826 -109.94483836 47.20304885 -109.078125 46.14453125 C-105.92314273 42.4070114 -102.45088598 39.42086627 -98.6875 36.3125 C-97.6871875 35.47460938 -96.686875 34.63671875 -95.65625 33.7734375 C-68.28508446 11.27218574 -35.35934281 -0.17869875 0 0 Z M-58.6875 21.3125 C-59.3475 22.3025 -60.0075 23.2925 -60.6875 24.3125 C-64.02448037 26.36602638 -67.35840505 28.15117895 -70.875 29.875 C-73.65189259 31.19088117 -73.65189259 31.19088117 -75.75 32.875 C-77.6875 34.3125 -77.6875 34.3125 -79.87109375 35.0078125 C-83.83476641 36.84396599 -86.56231187 39.61667254 -89.6875 42.625 C-90.29078125 43.19412109 -90.8940625 43.76324219 -91.515625 44.34960938 C-104.11177765 55.68068464 -104.11177765 55.68068464 -114 69.1875 C-115.83372928 72.58329496 -117.96811721 74.59311721 -120.6875 77.3125 C-125.54747562 83.29104144 -128.10235591 89.62345888 -130.52734375 96.890625 C-131.52565106 99.83512736 -132.64428532 102.64801174 -133.875 105.5 C-146.662223 137.08953368 -140.65470462 177.63098532 -128.6875 208.3125 C-121.52543341 225.06310499 -108.58985856 239.65069389 -95.6875 252.3125 C-95.13707031 252.88613281 -94.58664063 253.45976562 -94.01953125 254.05078125 C-86.8803404 261.44690956 -78.87924089 267.4018252 -70.1328125 272.76953125 C-67.6875 274.3125 -67.6875 274.3125 -65.94921875 275.796875 C-62.38257721 278.18695603 -58.42186857 279.37416312 -54.375 280.75 C-53.04553345 281.20850342 -53.04553345 281.20850342 -51.68920898 281.67626953 C-44.10846261 284.2511716 -36.47872278 286.46642683 -28.6875 288.3125 C-27.90117188 288.49941406 -27.11484375 288.68632812 -26.3046875 288.87890625 C-19.20366219 290.05534477 -11.87099753 290.05034732 -4.6875 290.3125 C-3.80223633 290.34794922 -2.91697266 290.38339844 -2.00488281 290.41992188 C12.2234055 290.92715078 25.44240143 289.5061583 39.3125 286.3125 C40.50101563 286.04695313 41.68953125 285.78140625 42.9140625 285.5078125 C58.97941631 281.23727541 76.72205232 271.17673778 88.3125 259.3125 C89.90669093 257.86394478 91.51090794 256.4263463 93.125 255 C97.07031462 251.47152666 100.87300325 247.84953669 104.578125 244.0703125 C105.97387658 242.65569941 107.41747402 241.28837774 108.875 239.9375 C118.18784322 229.90828422 126.48473235 216.15336652 131.3125 203.3125 C131.56257813 202.64734375 131.81265625 201.9821875 132.0703125 201.296875 C141.61543147 174.16864215 143.32626352 144.53722266 137.3125 116.3125 C136.6525 116.3125 135.9925 116.3125 135.3125 116.3125 C135.20292969 115.58804688 135.09335937 114.86359375 134.98046875 114.1171875 C134.07486625 108.59522102 132.91248018 104.29579534 130.3125 99.3125 C129.7313535 97.07208003 129.26559819 94.83333888 128.83984375 92.55859375 C124.22514723 72.90340485 103.54430764 54.42518895 88.8125 41.75 C88.16152344 41.18603516 87.51054687 40.62207031 86.83984375 40.04101562 C79.77456033 33.84505268 79.77456033 33.84505268 71.875 28.8125 C69.35712533 27.47924257 67.11002954 26.16001045 64.828125 24.44140625 C59.90651835 21.12610871 54.09174988 19.58045382 48.5 17.75 C47.28747559 17.35304932 46.07495117 16.95609863 44.82568359 16.54711914 C14.68377953 6.90869624 -30.38594141 4.59483516 -58.6875 21.3125 Z " fill="#EDF408" transform="translate(149.6875,-0.3125)"/>
<path d="M0 0 C11.0040282 8.67341633 18.04639954 21.08019968 20 35 C20.46603184 41.66158858 20.39884154 48.33738482 20 55 C18.25707823 56.74292177 15.99376505 56.11980303 13.67175293 56.12442017 C12.90858765 56.12082489 12.14542236 56.11722961 11.35913086 56.11352539 C10.15922264 56.11374443 10.15922264 56.11374443 8.93507385 56.1139679 C6.27830335 56.11326855 3.62160207 56.10547518 0.96484375 56.09765625 C-0.87218691 56.09579215 -2.70921806 56.09436821 -4.54624939 56.09336853 C-9.39109662 56.08954275 -14.23591408 56.07971196 -19.08074951 56.06866455 C-24.02062578 56.05845172 -28.96050685 56.05387119 -33.90039062 56.04882812 C-43.60027353 56.03808974 -53.30013429 56.0210126 -63 56 C-62.74083924 58.20599006 -62.46550604 60.41008314 -62.18359375 62.61328125 C-62.03204834 63.84087158 -61.88050293 65.06846191 -61.72436523 66.33325195 C-60.52879255 72.38525943 -57.7344231 78.29083715 -53.30859375 82.67578125 C-52 84 -52 84 -52 86 C-50.3369416 86.67561748 -48.66905395 87.33933281 -47 88 C-45.88625 88.53625 -44.7725 89.0725 -43.625 89.625 C-35.28938045 92.72515452 -25.03553946 92.05529943 -16.83203125 88.8515625 C-16.22746094 88.57054687 -15.62289062 88.28953125 -15 88 C-14.30261719 87.69835937 -13.60523437 87.39671875 -12.88671875 87.0859375 C-10.68043839 86.00211739 -10.68043839 86.00211739 -9 83 C-8.34 83 -7.68 83 -7 83 C-6.79503906 82.21753906 -6.59007813 81.43507813 -6.37890625 80.62890625 C-6.10949219 79.61699219 -5.84007813 78.60507813 -5.5625 77.5625 C-5.29566406 76.55316406 -5.02882813 75.54382813 -4.75390625 74.50390625 C-4 72 -4 72 -3 71 C-1.5112814 70.91330568 -0.018555 70.89296506 1.47265625 70.90234375 C2.37177734 70.90556641 3.27089844 70.90878906 4.19726562 70.91210938 C5.61555664 70.92467773 5.61555664 70.92467773 7.0625 70.9375 C8.4865918 70.94426758 8.4865918 70.94426758 9.93945312 70.95117188 C12.29303065 70.9629989 14.64648477 70.97947975 17 71 C17.30877554 81.16489079 14.95360417 87.64285624 7.90234375 95.15625 C-4.64736003 107.3194126 -18.62359285 109.40621248 -35.3828125 109.21484375 C-50.03782861 108.81962472 -60.43251165 104.78658268 -70.875 94.625 C-71.43517822 94.08375488 -71.99535645 93.54250977 -72.57250977 92.98486328 C-76.26334098 89.23404134 -78.15514425 85.92154309 -80 81 C-80.6738363 79.72186923 -81.35887087 78.44947451 -82.0625 77.1875 C-86.33942526 68.61734193 -86.38757763 59.21328365 -86.375 49.8125 C-86.37411377 48.62519287 -86.37322754 47.43788574 -86.37231445 46.21459961 C-86.23222396 35.80452454 -85.59421014 25.48776167 -79 17 C-78.53078125 16.03191406 -78.0615625 15.06382812 -77.578125 14.06640625 C-73.81861144 6.76141084 -67.24810484 -0.05161604 -60 -4 C-58.78957031 -4.69609375 -58.78957031 -4.69609375 -57.5546875 -5.40625 C-39.80975111 -13.92381947 -16.1657461 -10.31697357 0 0 Z " fill="#F6F800" transform="translate(125,137)"/>
<path d="M0 0 C1.11763229 -0.00315216 2.23526459 -0.00630432 3.38676453 -0.009552 C5.18848869 -0.00651566 5.18848869 -0.00651566 7.02661133 -0.00341797 C8.87903191 -0.00485306 8.87903191 -0.00485306 10.76887512 -0.00631714 C14.04492964 -0.00717159 17.32093665 -0.00314827 20.59698486 0.00244141 C22.61122131 0.00439703 24.62541436 0.00244267 26.63964844 -0.00097656 C30.49782353 -0.0071258 34.35593362 -0.0064139 38.21411133 -0.00341797 C40.02494453 -0.00645432 40.02494453 -0.00645432 41.87236023 -0.009552 C43.53462395 -0.00482376 43.53462395 -0.00482376 45.23046875 0 C46.2110173 0.00079559 47.19156586 0.00159119 48.201828 0.00241089 C50.42114258 0.12939453 50.42114258 0.12939453 51.42114258 1.12939453 C51.51938195 2.79368505 51.55087889 4.46221384 51.54614258 6.12939453 C51.55000977 7.49064453 51.55000977 7.49064453 51.55395508 8.87939453 C51.42114258 11.12939453 51.42114258 11.12939453 50.42114258 12.12939453 C47.56236349 12.36640692 44.7223096 12.55158635 41.85864258 12.69189453 C41.05233398 12.73507813 40.24602539 12.77826172 39.4152832 12.82275391 C37.41745453 12.92914715 35.41932188 13.02980341 33.42114258 13.12939453 C32.40692083 21.25496176 32.20534373 29.32176943 32.17114258 37.50439453 C32.15051758 38.76123047 32.12989258 40.01806641 32.10864258 41.31298828 C32.10348633 42.51826172 32.09833008 43.72353516 32.09301758 44.96533203 C32.07899902 46.59801025 32.07899902 46.59801025 32.06469727 48.26367188 C32.46360992 51.47082035 33.17664629 52.84023335 35.42114258 55.12939453 C37.47000738 55.60997168 37.47000738 55.60997168 39.60864258 55.37939453 C40.86676758 55.29689453 42.12489258 55.21439453 43.42114258 55.12939453 C43.70989258 54.36626953 43.99864258 53.60314453 44.29614258 52.81689453 C45.42114258 50.12939453 45.42114258 50.12939453 47.42114258 47.12939453 C48.90614258 47.62439453 48.90614258 47.62439453 50.42114258 48.12939453 C51.07453321 55.18601335 49.55762394 60.31838577 45.42114258 66.12939453 C42.07502209 69.20067966 38.80531598 70.78335118 34.42114258 71.87939453 C29.74032398 70.70918988 26.37841634 67.90591305 23.42114258 64.12939453 C20.77112194 57.72517798 21.1177878 51.16012142 21.17114258 44.31689453 C21.17500977 43.12668701 21.17887695 41.93647949 21.18286133 40.71020508 C21.27639758 31.07921936 22.02676484 21.65349248 23.42114258 12.12939453 C20.94154122 12.26963673 18.46261855 12.41631304 15.98364258 12.56689453 C14.92306641 12.62586914 14.92306641 12.62586914 13.84106445 12.68603516 C10.33423839 12.60563891 10.33423839 12.60563891 7.42114258 14.12939453 C7.09528212 16.61310331 6.82570074 19.08207651 6.58911133 21.57470703 C6.42875532 23.14376363 6.26793135 24.71277247 6.10668945 26.28173828 C5.85816713 28.74465517 5.61311385 31.20774068 5.37695312 33.671875 C2.58917016 62.50349735 2.58917016 62.50349735 -4.57885742 70.12939453 C-7.99818691 71.12697242 -11.4044192 70.75331484 -14.57885742 69.06689453 C-16.15690467 66.00942799 -15.84794342 63.52483497 -15.57885742 60.12939453 C-13.96948242 57.19970703 -13.96948242 57.19970703 -11.82885742 54.25439453 C-3.57191583 41.91612322 -2.86095985 26.55304685 -1.57885742 12.12939453 C-3.37344687 12.35746944 -5.16461191 12.61261757 -6.95385742 12.87939453 C-7.9515918 13.01861328 -8.94932617 13.15783203 -9.97729492 13.30126953 C-12.69220063 13.86225565 -12.69220063 13.86225565 -13.81323242 16.03564453 C-14.06588867 16.72658203 -14.31854492 17.41751953 -14.57885742 18.12939453 C-16.45385742 20.87939453 -16.45385742 20.87939453 -18.57885742 23.12939453 C-19.89885742 23.12939453 -21.21885742 23.12939453 -22.57885742 23.12939453 C-23.08905105 17.77236139 -21.74759757 15.38455987 -18.57885742 11.12939453 C-18.12510742 10.28376953 -17.67135742 9.43814453 -17.20385742 8.56689453 C-14.85133972 5.03811797 -11.84785244 1.90825363 -7.73612976 0.49685669 C-5.12582366 0.05222636 -2.64892556 0.00214405 0 0 Z " fill="#F2F400" transform="translate(197.578857421875,66.87060546875)"/>
<path d="M0 0 C5.91339477 4.57497209 8.97367194 11.97061415 11 19 C11 21.31 11 23.62 11 26 C-8.8 26 -28.6 26 -49 26 C-49 15.43361722 -46.44197633 8.87883223 -39.296875 1.16015625 C-28.75349097 -8.55210516 -11.64858314 -7.06849008 0 0 Z " fill="#0A0A00" transform="translate(111,150)"/>
<path d="M0 0 C1 1 1 1 1.12025452 3.17030334 C1.1169236 4.60592873 1.1169236 4.60592873 1.11352539 6.07055664 C1.11344986 7.15160172 1.11337433 8.23264679 1.11329651 9.34645081 C1.10813522 10.5224736 1.10297394 11.6984964 1.09765625 12.91015625 C1.0962413 14.10732773 1.09482635 15.30449921 1.09336853 16.53794861 C1.08774979 20.37949066 1.07519411 24.22097543 1.0625 28.0625 C1.05748741 30.65950437 1.05292409 33.25650965 1.04882812 35.85351562 C1.03777427 42.23569679 1.02101792 48.6178443 1 55 C1.78246094 55.20496094 2.56492188 55.40992188 3.37109375 55.62109375 C4.38300781 55.89050781 5.39492187 56.15992188 6.4375 56.4375 C7.44683594 56.70433594 8.45617187 56.97117188 9.49609375 57.24609375 C12 58 12 58 13 59 C13.125 61.5 13.125 61.5 13 64 C11.23927416 65.76072584 8.9210371 65.12834784 6.5760498 65.13894653 C5.81876587 65.1369223 5.06148193 65.13489807 4.28125 65.1328125 C3.12163757 65.13424759 3.12163757 65.13424759 1.93859863 65.13571167 C0.30102456 65.13639341 -1.33655219 65.13453957 -2.97412109 65.13037109 C-5.48931921 65.12502271 -8.00433873 65.13031626 -10.51953125 65.13671875 C-12.10677123 65.13605797 -13.6940111 65.1347768 -15.28125 65.1328125 C-16.03853394 65.13483673 -16.79581787 65.13686096 -17.5760498 65.13894653 C-22.88504868 65.11495132 -22.88504868 65.11495132 -24 64 C-24.1875 61.5625 -24.1875 61.5625 -24 59 C-22 57 -22 57 -14 55 C-13.67 40.81 -13.34 26.62 -13 12 C-17.455 11.01 -17.455 11.01 -22 10 C-22.66 9.67 -23.32 9.34 -24 9 C-24.04241723 6.66705225 -24.04092937 4.33297433 -24 2 C-19.87282203 -2.12717797 -5.52995184 -0.31441198 0 0 Z " fill="#F8FA00" transform="translate(157,72)"/>
<path d="M0 0 C2.6875 1.5 2.6875 1.5 4 4 C4.69442504 8.86097528 4.72753703 10.83594076 2.125 15 C-2.25679308 17.80434757 -5.93267095 18.03008 -11 17 C-14.53486549 14.59629147 -15.7366804 13.2376021 -16.625 9.0625 C-15.97179453 5.86179321 -15.0582002 3.57576459 -12.828125 1.140625 C-8.91677444 -1.29979031 -4.38419418 -0.76892021 0 0 Z " fill="#E4E600" transform="translate(156,45)"/>
<path d="M0 0 C3.9774516 4.35625651 5.83176221 10.25211604 6.1875 16.0625 C6.125625 16.701875 6.06375 17.34125 6 18 C6.99 18.33 7.98 18.66 9 19 C9.33 20.98 9.66 22.96 10 25 C10.66 25 11.32 25 12 25 C14.06057435 28.93382377 15.6511086 32.77347363 17 37 C17.65411685 38.67163195 18.31653318 40.34015202 19 42 C14.98033931 38.34956291 12.42918961 34.65484346 10.0625 29.75 C9.72476562 29.06196289 9.38703125 28.37392578 9.0390625 27.66503906 C6.55433061 22.46819887 4.43379494 17.17427421 2.5 11.75 C2.24484619 11.03553711 1.98969238 10.32107422 1.72680664 9.58496094 C0.56205658 6.17206747 0 3.64933974 0 0 Z " fill="#335A46" transform="translate(14,184)"/>
<path d="M0 0 C-1.33333333 2.66666667 -2.66666667 5.33333333 -4 8 C5.9 8 15.8 8 26 8 C26 6.02 26 4.04 26 2 C26.99 2.33 27.98 2.66 29 3 C29.042721 4.66611905 29.04063832 6.33382885 29 8 C27.23927416 9.76072584 24.9210371 9.12834784 22.5760498 9.13894653 C21.81876587 9.1369223 21.06148193 9.13489807 20.28125 9.1328125 C19.12163757 9.13424759 19.12163757 9.13424759 17.93859863 9.13571167 C16.30102456 9.13639341 14.66344781 9.13453957 13.02587891 9.13037109 C10.51068079 9.12502271 7.99566127 9.13031626 5.48046875 9.13671875 C3.89322877 9.13605797 2.3059889 9.1347768 0.71875 9.1328125 C-0.03853394 9.13483673 -0.79581787 9.13686096 -1.5760498 9.13894653 C-6.88504868 9.11495132 -6.88504868 9.11495132 -8 8 C-8.1875 5.5625 -8.1875 5.5625 -8 3 C-5.48696401 0.48696401 -3.51117809 0 0 0 Z " fill="#B1B300" transform="translate(141,128)"/>
<path d="M0 0 C0.75 1.625 0.75 1.625 1 4 C-0.30208796 6.02048131 -1.63988391 8.01811655 -3 10 C-3.69356423 12.32548007 -4.36149212 14.65880445 -5 17 C-5.97383946 18.68208635 -6.97695052 20.34738161 -8 22 C-11.48219891 28.7276083 -13.35380155 35.62952057 -15 43 C-18.21612087 33.52907854 -10.88038325 20.70287878 -7 12 C-1.96503497 1.96503497 -1.96503497 1.96503497 0 0 Z " fill="#558451" transform="translate(29,77)"/>
<path d="M0 0 C-2.72608148 2.72608148 -5.28405781 3.02749782 -9 4 C-11.45878792 4.68587242 -13.917128 5.37335252 -16.375 6.0625 C-17.59960938 6.40410156 -18.82421875 6.74570312 -20.0859375 7.09765625 C-22.86564166 7.71020629 -22.86564166 7.71020629 -24 9 C-25.99958364 9.04080783 -28.00045254 9.04254356 -30 9 C-30 9.66 -30 10.32 -30 11 C-31.98 11 -33.96 11 -36 11 C-34.41538341 7.83076681 -31.71562589 7.39092058 -28.5 6.15234375 C-23.94209492 4.6516942 -19.33787659 3.42845391 -14.6875 2.25 C-13.81569092 2.02723389 -12.94388184 1.80446777 -12.0456543 1.57495117 C-7.9675898 0.57419674 -4.23432178 -0.31430017 0 0 Z " fill="#2D5443" transform="translate(126,12)"/>
<path d="M0 0 C4.03480337 0.55800472 6.44776834 1.77978452 9.75 4.125 C16.99781971 8.92705338 24.92688165 11.88621813 33 15 C28.58776729 16.39758093 25.47864719 15.06583853 21.3125 13.4375 C20.59932617 13.16373535 19.88615234 12.8899707 19.15136719 12.60791016 C11.81806691 9.6915977 5.2870806 5.9766998 0 0 Z " fill="#518154" transform="translate(73,267)"/>
<path d="M0 0 C-21.08504725 13.31861135 -21.08504725 13.31861135 -25.27734375 12.62109375 C-25.84582031 12.41613281 -26.41429687 12.21117187 -27 12 C-25.68 11.67 -24.36 11.34 -23 11 C-23 10.34 -23 9.68 -23 9 C-21.39967863 8.15930585 -19.79458829 7.32768495 -18.1875 6.5 C-16.84751953 5.80390625 -16.84751953 5.80390625 -15.48046875 5.09375 C-13 4 -13 4 -10 4 C-10 3.34 -10 2.68 -10 2 C-8.68 2 -7.36 2 -6 2 C-6 1.34 -6 0.68 -6 0 C-2.25 -1.125 -2.25 -1.125 0 0 Z " fill="#3B6242" transform="translate(225,269)"/>
<path d="M0 0 C7.2712705 6.41582692 11.45006755 14.73971898 14 24 C13.34 24 12.68 24 12 24 C11.63648438 23.2265625 11.27296875 22.453125 10.8984375 21.65625 C8.09539507 15.84892107 5.30264672 10.63078694 1.1015625 5.71875 C0 4 0 4 0 0 Z " fill="#558456" transform="translate(265,70)"/>
<path d="M0 0 C0.99 0.33 1.98 0.66 3 1 C3.67090715 8.24579719 1.58125682 12.75838097 -2 19 C-3 16 -3 16 -1.625 13.0625 C-1.08875 12.051875 -0.5525 11.04125 0 10 C0.68636625 7.76474965 0.68636625 7.76474965 1 6 C-0.65 6.33 -2.3 6.66 -4 7 C-2.68 4.69 -1.36 2.38 0 0 Z " fill="#C1C300" transform="translate(245,114)"/>
<path d="M0 0 C0 3.29657856 -0.74333269 5.16364428 -2 8.1875 C-2.37125 9.08855469 -2.7425 9.98960938 -3.125 10.91796875 C-3.558125 11.94857422 -3.558125 11.94857422 -4 13 C-3.01 13.33 -2.02 13.66 -1 14 C-1.99 15.485 -1.99 15.485 -3 17 C-4.32 17 -5.64 17 -7 17 C-7.51019363 11.64296686 -6.16874015 9.25516534 -3 5 C-1.98940479 3.33973644 -0.98546999 1.67529898 0 0 Z " fill="#AEAF00" transform="translate(182,73)"/>
<path d="M0 0 C0.66 0.33 1.32 0.66 2 1 C-4.6 7.6 -11.2 14.2 -18 21 C-18 15.77683535 -13.50936218 12.58668711 -10 9 C-7.92761701 7.08286521 -5.82274819 5.22912846 -3.6640625 3.41015625 C-1.8974177 1.95229227 -1.8974177 1.95229227 0 0 Z " fill="#152211" transform="translate(61,41)"/>
<path d="M0 0 C-1.36353559 3.09833087 -2.88647793 5.03588264 -5.375 7.3125 C-8.77583226 10.59263467 -10.8586446 13.80294342 -13 18 C-13.33 17.34 -13.66 16.68 -14 16 C-12.14876352 11.51938017 -9.68790383 8.19134094 -6.4375 4.625 C-5.65246094 3.75101563 -4.86742187 2.87703125 -4.05859375 1.9765625 C-2 0 -2 0 0 0 Z " fill="#D1D200" transform="translate(60,138)"/>
<path d="M0 0 C0 2.97 0 5.94 0 9 C-0.33 9 -0.66 9 -1 9 C-1.33 7.02 -1.66 5.04 -2 3 C-6.4571874 3.26218749 -8.51522698 3.57711289 -11.9375 6.5625 C-12.618125 7.366875 -13.29875 8.17125 -14 9 C-14.66 8.67 -15.32 8.34 -16 8 C-11.26414083 1.77572795 -8.09991351 -0.37674016 0 0 Z " fill="#3A3A00" transform="translate(196,79)"/>
<path d="M0 0 C1.2065625 0.0309375 1.2065625 0.0309375 2.4375 0.0625 C1.4475 1.5475 1.4475 1.5475 0.4375 3.0625 C0.27036431 5.68781524 0.27036431 5.68781524 0.4375 8.0625 C1.7575 8.7225 3.0775 9.3825 4.4375 10.0625 C-1.3125 9.1875 -1.3125 9.1875 -3.5625 8.0625 C-3.60491723 5.72955225 -3.60342937 3.39547433 -3.5625 1.0625 C-2.5625 0.0625 -2.5625 0.0625 0 0 Z " fill="#BABC00" transform="translate(136.5625,72.9375)"/>
<path d="M0 0 C-1.33333333 2.66666667 -2.66666667 5.33333333 -4 8 C-5.32 7.67 -6.64 7.34 -8 7 C-7.8125 4.625 -7.8125 4.625 -7 2 C-4.54236535 0.67665827 -2.79402354 0 0 0 Z " fill="#D0D100" transform="translate(141,128)"/>
<path d="M0 0 C3.56425699 1.31447775 6.59724634 2.88405795 9.75 5 C10.52859375 5.515625 11.3071875 6.03125 12.109375 6.5625 C14 8 14 8 15 10 C13.35 9.67 11.7 9.34 10 9 C10 8.34 10 7.68 10 7 C9.01 7 8.02 7 7 7 C7 6.34 7 5.68 7 5 C5.5459375 4.5978125 5.5459375 4.5978125 4.0625 4.1875 C3.051875 3.795625 2.04125 3.40375 1 3 C0.67 2.01 0.34 1.02 0 0 Z " fill="#32513B" transform="translate(217,27)"/>
<path d="M0 0 C1 3 1 3 -0.21484375 5.69921875 C-0.78332031 6.68535156 -1.35179687 7.67148438 -1.9375 8.6875 C-2.50339844 9.68136719 -3.06929688 10.67523438 -3.65234375 11.69921875 C-4.31943359 12.83810547 -4.31943359 12.83810547 -5 14 C-6.31223496 10.06329512 -5.24296256 7.87511856 -4 4 C-3.34 4 -2.68 4 -2 4 C-1.34 2.68 -0.68 1.36 0 0 Z " fill="#38634F" transform="translate(278,205)"/>
<path d="M0 0 C1.2065625 0.495 1.2065625 0.495 2.4375 1 C6.73804795 2.20717135 10.56966181 2.17721353 15 2 C12.67106405 4.14978703 11.22038995 4.96248682 8.0625 5.5 C4.02439369 4.84071734 2.59795767 3.05642079 0 0 Z " fill="#BDC200" transform="translate(224,133)"/>
<path d="M0 0 C0.33 0 0.66 0 1 0 C1.103125 0.763125 1.20625 1.52625 1.3125 2.3125 C2.07608041 5.29740522 2.40538567 6.35674426 5 8 C8.62535976 8.2503577 8.62535976 8.2503577 12 8 C11.67 8.66 11.34 9.32 11 10 C3.67784643 10.36010591 3.67784643 10.36010591 1 8.9375 C-0.52690415 5.97912322 -0.18468872 3.26283401 0 0 Z " fill="#B2B300" transform="translate(182,127)"/>
<path d="M0 0 C-4.75 3 -4.75 3 -7 3 C-7.33 3.99 -7.66 4.98 -8 6 C-9.98 6 -11.96 6 -14 6 C-11.72698066 3.45655714 -9.54913519 2.12383563 -6.4375 0.75 C-5.65246094 0.39421875 -4.86742188 0.0384375 -4.05859375 -0.328125 C-2 -1 -2 -1 0 0 Z " fill="#93B13B" transform="translate(91,13)"/>
<path d="M0 0 C-1.78524649 1.19713017 -3.5784028 2.38247279 -5.375 3.5625 C-6.87160156 4.55443359 -6.87160156 4.55443359 -8.3984375 5.56640625 C-9.25695312 6.03949219 -10.11546875 6.51257813 -11 7 C-11.66 6.67 -12.32 6.34 -13 6 C-11.75 4 -11.75 4 -10 2 C-8.68 2 -7.36 2 -6 2 C-6 1.34 -6 0.68 -6 0 C-2.25 -1.125 -2.25 -1.125 0 0 Z " fill="#335D48" transform="translate(225,269)"/>
<path d="M0 0 C-1.38188453 3.21043882 -2.92421903 5.04936365 -5.625 7.25 C-6.57246094 8.03117187 -6.57246094 8.03117187 -7.5390625 8.828125 C-8.02117187 9.21484375 -8.50328125 9.6015625 -9 10 C-7.81442213 5.25768853 -5.66615657 0 0 0 Z " fill="#D4D400" transform="translate(190,68)"/>
<path d="M0 0 C1.2065625 0.0309375 1.2065625 0.0309375 2.4375 0.0625 C1.04417426 3.42970387 -0.5414286 5.0484524 -3.5625 7.0625 C-3.60504356 5.06295254 -3.60330783 3.06208364 -3.5625 1.0625 C-2.5625 0.0625 -2.5625 0.0625 0 0 Z " fill="#2E2D00" transform="translate(233.5625,78.9375)"/>
<path d="M0 0 C0.56203125 0.22558594 1.1240625 0.45117188 1.703125 0.68359375 C0.29760201 1.71971646 -1.12179194 2.737043 -2.546875 3.74609375 C-3.73023437 4.59880859 -3.73023437 4.59880859 -4.9375 5.46875 C-7.296875 6.68359375 -7.296875 6.68359375 -9.59375 6.3671875 C-10.15578125 6.14160156 -10.7178125 5.91601562 -11.296875 5.68359375 C-9.89135201 4.64747104 -8.47195806 3.6301445 -7.046875 2.62109375 C-6.25796875 2.05261719 -5.4690625 1.48414062 -4.65625 0.8984375 C-2.296875 -0.31640625 -2.296875 -0.31640625 0 0 Z " fill="#659256" transform="translate(88.296875,23.31640625)"/>
<path d="M0 0 C1.58624235 0.42683239 3.1689098 0.86696158 4.75 1.3125 C6.07257813 1.67794922 6.07257813 1.67794922 7.421875 2.05078125 C10.05772505 3.02125331 11.85407326 4.21005644 14 6 C10.28400809 6.20086443 9.22791555 6.1519437 6 4 C4.34450469 3.61500109 2.6777567 3.27206865 1 3 C0.67 2.01 0.34 1.02 0 0 Z " fill="#97AE38" transform="translate(197,7)"/>
<path d="M0 0 C1.17571451 3.67410785 1.07366746 7.16929183 1 11 C0.01 10.34 -0.98 9.68 -2 9 C-2.43132515 4.94554358 -2.30019361 3.45029042 0 0 Z " fill="#A3A400" transform="translate(142,48)"/>
<path d="M0 0 C0 0.66 0 1.32 0 2 C-2.75 4.1875 -2.75 4.1875 -6 6 C-8.203125 5.61328125 -8.203125 5.61328125 -10 5 C-8.71186658 4.16121545 -7.41936744 3.32913217 -6.125 2.5 C-5.40570313 2.0359375 -4.68640625 1.571875 -3.9453125 1.09375 C-2 0 -2 0 0 0 Z " fill="#A0BC3A" transform="translate(77,19)"/>
<path d="M0 0 C0.99 0.33 1.98 0.66 3 1 C3 3.64 3 6.28 3 9 C2.67 9 2.34 9 2 9 C2 7.35 2 5.7 2 4 C0.68 4.33 -0.64 4.66 -2 5 C-1.34 3.35 -0.68 1.7 0 0 Z " fill="#848500" transform="translate(245,114)"/>
<path d="M0 0 C2.5625 2.25 2.5625 2.25 5 5 C4.8125 7.3125 4.8125 7.3125 4 9 C0 4.5 0 4.5 0 0 Z " fill="#355741" transform="translate(265,70)"/>
<path d="M0 0 C4.31392226 0.4793247 6.16569547 1.7457985 9 5 C4.68607774 4.5206753 2.83430453 3.2542015 0 0 Z " fill="#447048" transform="translate(73,267)"/>
<path d="M0 0 C1.32 0.33 2.64 0.66 4 1 C0.535 3.97 0.535 3.97 -3 7 C-1.125 1.125 -1.125 1.125 0 0 Z " fill="#E4E900" transform="translate(123,209)"/>
<path d="M0 0 C1.46726798 3.81489674 0.43336419 6.29011622 -1 10 C-1.66 10 -2.32 10 -3 10 C-2.25 2.25 -2.25 2.25 0 0 Z " fill="#CDCD00" transform="translate(45,156)"/>
<path d="M0 0 C4.99911924 0.47610659 7.97832683 2.03162219 12 5 C11.01 5.33 10.02 5.66 9 6 C5.51013529 4.22445479 2.75847687 2.75847687 0 0 Z " fill="#548561" transform="translate(205,21)"/>
<path d="M0 0 C0.66 0 1.32 0 2 0 C6.57142857 7.28571429 6.57142857 7.28571429 6 12 C4 8 2 4 0 0 Z " fill="#323300" transform="translate(136,150)"/>
<path d="M0 0 C0.99 0.33 1.98 0.66 3 1 C3 2.65 3 4.3 3 6 C2.01 6.33 1.02 6.66 0 7 C0 4.69 0 2.38 0 0 Z " fill="#A3A500" transform="translate(167,130)"/>
<path d="M0 0 C-0.99 0.33 -1.98 0.66 -3 1 C-3 1.66 -3 2.32 -3 3 C-4.98 3 -6.96 3 -9 3 C-7.01532024 -0.96935951 -3.9567243 -1.41311582 0 0 Z " fill="#53864A" transform="translate(99,20)"/>
<path d="M0 0 C0.6875 1.625 0.6875 1.625 1 4 C-0.4375 7.25 -0.4375 7.25 -2 10 C-2.33 10 -2.66 10 -3 10 C-3.36629408 5.72656908 -2.40814077 3.51187196 0 0 Z " fill="#343500" transform="translate(120,210)"/>
</svg>
